<svg xmlns="http://www.w3.org/2000/svg"><symbol id="back" viewBox="0 0 50 50"><path d="M14.8 15.8V9.7L.5 24l14.3 14.3v-6.1L6.6 24l8.2-8.2zM27 17.9V9.7L12.8 24 27 38.3v-8.4c10.2 0 17.4 3.3 22.5 10.4-2-10.2-8.2-20.4-22.5-22.4z"/></symbol><symbol id="dialog" viewBox="0 0 50 50"><path d="M44.6.5H5.4C2.7.5.5 2.7.5 5.4v44.1l9.8-9.8h34.3c2.7 0 4.9-2.2 4.9-4.9V5.4c0-2.7-2.2-4.9-4.9-4.9zm-27 22h-4.9v-4.9h4.9v4.9zm9.9 0h-4.9v-4.9h4.9v4.9zm9.8 0h-4.9v-4.9h4.9v4.9z"/></symbol><symbol id="save" viewBox="0 0 50 50"><path d="M38.6.5H5.9C2.9.5.5 2.9.5 5.9V44c0 3 2.4 5.4 5.4 5.4H44c3 0 5.4-2.4 5.4-5.4V11.4L38.6.5zM25 44.1c-4.5 0-8.2-3.7-8.2-8.2s3.7-8.2 8.2-8.2 8.2 3.7 8.2 8.2c0 4.5-3.7 8.1-8.2 8.2zm8.2-27.3H5.9V5.9h27.2v10.9z"/></symbol><symbol id="cart" viewBox="0 0 50 50"><path d="M27 .5l-6.7 6.7h11.1L27 .5zm11.1 2.2l-4.5 4.5h8.9l-4.4-4.5zM4.7 5v4.5h5.1l5.8 17.4-3.3 4.5h-.1c-1 1.4-1.1 3.2-.3 4.7s2.3 2.4 4 2.4h29V34h-29v-.1l3.3-4.4h20.9c.9.1 1.7-.5 2-1.3L49 12.6c.5-1.1 0-2.4-1.1-2.9-.3-.1-.6-.2-.9-.2H14.5l-1-2.9L13 5H4.7zm11.2 35.6c-2.5 0-4.5 2-4.5 4.5s2 4.5 4.5 4.5 4.5-2 4.5-4.5c-.1-2.5-2.1-4.5-4.5-4.5zm24.5 0c-2.5 0-4.5 2-4.5 4.5s2 4.5 4.5 4.5 4.5-2 4.5-4.5c-.1-2.5-2.1-4.5-4.5-4.5z"/></symbol><symbol id="tile" viewBox="0 0 50 50"><g fill="none" stroke-width="4" stroke-miterlimit="10"><path d="M28 2h20v20H28zM2 2h20v20H2zM2 28h20v20H2zM28 28h20v20H28z"/></g></symbol><symbol id="list" viewBox="0 0 50 50"><path d="M16.1 20.4h33.4v9.1H16.1zM16.1 5.5h33.4v9.1H16.1zM16.1 35.4h33.4v9.1H16.1zM.5 20.4h9.1v9.1H.5zM.5 5.5h9.1v9.1H.5zM.5 35.4h9.1v9.1H.5z"/></symbol></svg>