<svg xmlns="http://www.w3.org/2000/svg" viewBox="0 0 50 50"><path d="M5.4 5.2C2.7 5.2.5 7.3.5 9.9v25.6c0 2.6 2.2 4.7 4.9 4.7h.2c.6 2.7 3 4.7 6 4.7s5.4-2 6-4.7h15c.6 2.7 3 4.7 6 4.7s5.4-2 6-4.7h.2c.3 0 .7 0 1-.1 2.2-.4 3.9-2.3 3.9-4.6v-8.6c0-.5-.2-1-.5-1.5l-8.6-12.3c-.5-.5-1.3-.9-2-.9H30V9.9c0-2.6-2.2-4.7-4.9-4.7H5.4zm9.8 4.7c5.4 0 9.8 4.2 9.8 9.3s-4.4 9.3-9.8 9.3-9.8-4.2-9.8-9.3 4.4-9.3 9.8-9.3zm2.3 2.7l-3.7 5.8-.6 1 .8.9 4.4 4.1 2.2-2.1-3.3-3.3 3-4.8-2.8-1.6zm14.8 4.3h6.2l4.8 7h-11v-7zM11.5 36.6c1.5 0 2.5.9 2.5 2.3s-1 2.3-2.5 2.3-2.4-.8-2.4-2.2 1-2.4 2.4-2.4zm27 0c1.5 0 2.5.9 2.5 2.3s-1 2.3-2.5 2.3S36 40.4 36 39s1-2.4 2.5-2.4z"/></svg>