<svg xmlns="http://www.w3.org/2000/svg" viewBox="0 0 50 50"><path d="M41.8 15.8c-2.5 0-4.8-1.2-6.2-3.1l-20.3 9.8c.3.8.4 1.6.4 2.5 0 .7-.1 1.4-.3 2l20.2 10.3c1.4-1.9 3.6-3.1 6.1-3.1 4.2 0 7.7 3.4 7.7 7.7 0 4.2-3.4 7.7-7.7 7.7S34 46.2 34 41.9c0-.6.1-1.2.2-1.8l-20-10.4c-1.4 1.8-3.6 2.9-6 2.9C4 32.6.5 29.2.5 24.9s3.4-7.7 7.7-7.7c2.3 0 4.3 1 5.7 2.5l20.6-10c-.1-.6-.2-1.1-.2-1.7 0-4.2 3.4-7.7 7.7-7.7 4.2 0 7.7 3.4 7.7 7.7-.2 4.4-3.6 7.8-7.9 7.8zm0 30.6c2.5 0 4.6-2.1 4.6-4.6 0-2.5-2.1-4.6-4.6-4.6-2.5 0-4.6 2.1-4.6 4.6.1 2.6 2.1 4.6 4.6 4.6zm-33.6-26c-2.5 0-4.6 2.1-4.6 4.6 0 2.5 2.1 4.6 4.6 4.6 2.5 0 4.6-2.1 4.6-4.6 0-2.5-2.1-4.6-4.6-4.6zM41.8 3.6c-2.5 0-4.6 2.1-4.6 4.6 0 2.5 2.1 4.6 4.6 4.6 2.5 0 4.6-2.1 4.6-4.6 0-2.6-2-4.6-4.6-4.6z"/></svg>