<svg xmlns="http://www.w3.org/2000/svg"><symbol id="cart" viewBox="0 0 50 50"><path d="M27 .5l-6.7 6.7h11.1L27 .5zm11.1 2.2l-4.5 4.5h8.9l-4.4-4.5zM4.7 5v4.5h5.1l5.8 17.4-3.3 4.5h-.1c-1 1.4-1.1 3.2-.3 4.7s2.3 2.4 4 2.4h29V34h-29v-.1l3.3-4.4h20.9c.9.1 1.7-.5 2-1.3L49 12.6c.5-1.1 0-2.4-1.1-2.9-.3-.1-.6-.2-.9-.2H14.5l-1-2.9L13 5H4.7zm11.2 35.6c-2.5 0-4.5 2-4.5 4.5s2 4.5 4.5 4.5 4.5-2 4.5-4.5c-.1-2.5-2.1-4.5-4.5-4.5zm24.5 0c-2.5 0-4.5 2-4.5 4.5s2 4.5 4.5 4.5 4.5-2 4.5-4.5c-.1-2.5-2.1-4.5-4.5-4.5z"/></symbol><symbol id="delivery" viewBox="0 0 50 50"><path d="M5.4 5.2C2.7 5.2.5 7.3.5 9.9v25.6c0 2.6 2.2 4.7 4.9 4.7h.2c.6 2.7 3 4.7 6 4.7s5.4-2 6-4.7h15c.6 2.7 3 4.7 6 4.7s5.4-2 6-4.7h.2c.3 0 .7 0 1-.1 2.2-.4 3.9-2.3 3.9-4.6v-8.6c0-.5-.2-1-.5-1.5l-8.6-12.3c-.5-.5-1.3-.9-2-.9H30V9.9c0-2.6-2.2-4.7-4.9-4.7H5.4zm9.8 4.7c5.4 0 9.8 4.2 9.8 9.3s-4.4 9.3-9.8 9.3-9.8-4.2-9.8-9.3 4.4-9.3 9.8-9.3zm2.3 2.7l-3.7 5.8-.6 1 .8.9 4.4 4.1 2.2-2.1-3.3-3.3 3-4.8-2.8-1.6zm14.8 4.3h6.2l4.8 7h-11v-7zM11.5 36.6c1.5 0 2.5.9 2.5 2.3s-1 2.3-2.5 2.3-2.4-.8-2.4-2.2 1-2.4 2.4-2.4zm27 0c1.5 0 2.5.9 2.5 2.3s-1 2.3-2.5 2.3S36 40.4 36 39s1-2.4 2.5-2.4z"/></symbol><symbol id="service" viewBox="0 0 50 50"><path d="M25 .5c-12.8 0-23.2 9.9-23.2 22v14.7c0 2.7 2.3 4.9 5.2 4.9h7.7V25H6.9v-2.4C6.9 13.1 15 5.4 25 5.4s18.1 7.7 18.1 17.1V25h-7.7v17.1H38c0 1.4-1.2 2.5-2.6 2.4H30c-.6-1.5-2-2.5-3.6-2.5h-2.6c-2-.1-3.8 1.5-3.9 3.5-.1 2 1.5 3.8 3.5 3.9h12c4.3 0 7.7-3.3 7.7-7.3 2.9 0 5.2-2.2 5.2-4.9V22.5C48.2 10.4 37.8.5 25 .5z"/></symbol><symbol id="warranty" viewBox="0 0 50 50"><path d="M5.4 1.7C2.7 1.7.5 3.8.5 6.4v30.2c0 2.6 2.2 4.7 4.9 4.7h12.3v7l7.3-7 7.3 7v-7h12.3c2.7 0 4.9-2.1 4.9-4.7V6.4c0-2.6-2.2-4.7-4.9-4.7H5.4zm0 4.7h39.2v30.2H32.3v-4.4c0-3.5-2.5-6.5-5.9-7.1-4.7-.9-8.8 2.5-8.8 6.8v4.7H5.4V6.4zm4.9 4.6v4.7h29.4V11H10.3zm0 7v4.7h29.4V18H10.3zM25 29.7c1.3.1 2.3 1.2 2.2 2.4-.1 1.3-1.2 2.3-2.4 2.2-1.2-.1-2.2-1.1-2.2-2.3 0-1.3 1.1-2.4 2.4-2.3z"/></symbol></svg>