<svg xmlns="http://www.w3.org/2000/svg" viewBox="0 0 50 50">
	<path d="M27,0.5l-6.7,6.7h11.1L27,0.5z M38.1,2.7l-4.5,4.5h8.9L38.1,2.7z M4.7,5v4.5h5.1l5.8,17.4
		l-3.3,4.5h-0.1c-1,1.4-1.1,3.2-0.3,4.7c0.8,1.5,2.3,2.4,4,2.4h29v-4.5h-29c0,0,0,0,0-0.1l3.3-4.4h20.9c0.9,0.1,1.7-0.5,2-1.3
		l6.9-15.6c0.5-1.1,0-2.4-1.1-2.9c-0.3-0.1-0.6-0.2-0.9-0.2H14.5l-1-2.9L13,5H4.7z M15.9,40.6c-2.5,0-4.5,2-4.5,4.5
		c0,2.5,2,4.5,4.5,4.5s4.5-2,4.5-4.5C20.3,42.6,18.3,40.6,15.9,40.6z M40.4,40.6c-2.5,0-4.5,2-4.5,4.5c0,2.5,2,4.5,4.5,4.5
		c2.5,0,4.5-2,4.5-4.5C44.8,42.6,42.8,40.6,40.4,40.6z"/>
</svg>
