<svg xmlns="http://www.w3.org/2000/svg" viewBox="0 0 50 50">
<path d="M5.4,5.2c-2.7,0-4.9,2.1-4.9,4.7v25.6c0,2.6,2.2,4.7,4.9,4.7h0.2c0.6,2.7,3,4.7,6,4.7s5.4-2,6-4.7h15
	c0.6,2.7,3,4.7,6,4.7c3,0,5.4-2,6-4.7h0.2c0.3,0,0.7,0,1-0.1c2.2-0.4,3.9-2.3,3.9-4.6v-8.6c0-0.5-0.2-1-0.5-1.5l-8.6-12.3
	c-0.5-0.5-1.3-0.9-2-0.9h-8.6V9.9c0-2.6-2.2-4.7-4.9-4.7H5.4z M15.2,9.9c5.4,0,9.8,4.2,9.8,9.3s-4.4,9.3-9.8,9.3s-9.8-4.2-9.8-9.3
	S9.8,9.9,15.2,9.9z M17.5,12.6l-3.7,5.8l-0.6,1l0.8,0.9l4.4,4.1l2.2-2.1L17.3,19l3-4.8L17.5,12.6z M32.3,16.9h6.2l4.8,7h-11
	L32.3,16.9z M11.5,36.6c1.5,0,2.5,0.9,2.5,2.3s-1,2.3-2.5,2.3S9.1,40.4,9.1,39S10.1,36.6,11.5,36.6z M38.5,36.6
	c1.5,0,2.5,0.9,2.5,2.3s-1,2.3-2.5,2.3S36,40.4,36,39S37,36.6,38.5,36.6L38.5,36.6z"/>
</svg>
