<svg xmlns="http://www.w3.org/2000/svg" viewBox="0 0 50 50">
	<path d="M36.3,30.2l1.7-1.7c0.3-0.3,0.9-0.1,0.9,0.4v14.3c0,2.3-1.9,4.2-4.2,4.2H4.2c-2.3,0-4.2-1.9-4.2-4.2V12.5c0-2.3,1.9-4.2,4.2-4.2h25.4c0.5,0,0.7,0.6,0.4,0.9L28.2,11c-0.1,0.1-0.2,0.2-0.4,0.2H4.2c-0.8,0-1.4,0.6-1.4,1.4v30.6c0,0.8,0.6,1.4,1.4,1.4h30.6c0.8,0,1.4-0.6,1.4-1.4V30.5C36.1,30.4,36.2,30.3,36.3,30.2z M48.9,13.6L21.8,40.7l-8.7,1c-1.2,0.1-2.1-0.9-2-2l1-8.7L39.2,3.8c1.4-1.4,3.7-1.4,5.2,0l4.6,4.6C50.4,9.8,50.4,12.1,48.9,13.6L48.9,13.6z M40.8,17.8L35,12L14.7,32.2L14,38.8l6.5-0.7L40.8,17.8L40.8,17.8z M47,10.4l-4.6-4.6c-0.3-0.3-0.9-0.3-1.2,0L37,10l5.8,5.8l4.2-4.2C47.3,11.3,47.3,10.7,47,10.4L47,10.4z"/>
</svg>
