<svg xmlns="http://www.w3.org/2000/svg" viewBox="0 0 50 50">
<path fill="#fff" d="M7.8,3c-4.1,0-7.3,3.3-7.3,7.3v29.4c0,4.1,3.3,7.3,7.3,7.3h34.3c4,0,7.3-3.3,7.3-7.3V10.3
	c0-4.1-3.3-7.3-7.3-7.3H7.8z M7.8,7.9h34.3c1.3,0,2.4,1.1,2.4,2.4c0,0,0,0,0,0v29.4c0,1.3-1.1,2.4-2.4,2.4c0,0,0,0,0,0H7.8
	c-1.3,0-2.4-1.1-2.4-2.4c0,0,0,0,0,0V10.3C5.4,9,6.5,7.9,7.8,7.9C7.8,7.9,7.8,7.9,7.8,7.9z M10.3,12.8v4.9h17.2v-4.9H10.3z
	 M34.8,12.8v4.9h4.9v-4.9H34.8z M10.3,22.6v4.9h17.2v-4.9H10.3z M34.8,22.6v4.9h4.9v-4.9H34.8z M27.5,32.3v4.9h12.2v-4.9H27.5z"/>
</svg>
