<svg xmlns="http://www.w3.org/2000/svg" viewBox="0 0 50 50">
	<path d="M41.8,15.8c-2.5,0-4.8-1.2-6.2-3.1l-20.3,9.8c0.3,0.8,0.4,1.6,0.4,2.5c0,0.7-0.1,1.4-0.3,2l20.2,10.3c1.4-1.9,3.6-3.1,6.1-3.1c4.2,0,7.7,3.4,7.7,7.7c0,4.2-3.4,7.7-7.7,7.7s-7.7-3.4-7.7-7.7c0-0.6,0.1-1.2,0.2-1.8L14.2,29.7c-1.4,1.8-3.6,2.9-6,2.9c-4.2,0-7.7-3.4-7.7-7.7s3.4-7.7,7.7-7.7c2.3,0,4.3,1,5.7,2.5l20.6-10c-0.1-0.6-0.2-1.1-0.2-1.7c0-4.2,3.4-7.7,7.7-7.7c4.2,0,7.7,3.4,7.7,7.7C49.5,12.4,46.1,15.8,41.8,15.8L41.8,15.8z M41.8,46.4c2.5,0,4.6-2.1,4.6-4.6c0-2.5-2.1-4.6-4.6-4.6c-2.5,0-4.6,2.1-4.6,4.6C37.3,44.4,39.3,46.4,41.8,46.4L41.8,46.4z M8.2,20.4c-2.5,0-4.6,2.1-4.6,4.6c0,2.5,2.1,4.6,4.6,4.6c2.5,0,4.6-2.1,4.6-4.6C12.8,22.5,10.7,20.4,8.2,20.4L8.2,20.4z M41.8,3.6c-2.5,0-4.6,2.1-4.6,4.6c0,2.5,2.1,4.6,4.6,4.6c2.5,0,4.6-2.1,4.6-4.6C46.4,5.6,44.4,3.6,41.8,3.6L41.8,3.6z"/>
</svg>
