<svg xmlns="http://www.w3.org/2000/svg" viewBox="0 0 152 40.6"><path fill="#000385" d="M10.4 30.6H17l-2.6-7.4c-.2-.6-.4-1.2-.7-2.6-.2 1.4-.4 2-.7 2.6l-2.6 7.4zM0 40.1l10.1-25.6h7.3l10.1 25.6h-6.9L19 36H8.4l-1.5 4H0zM41.7 20.3H38v5.9h3.7c2 0 3.9-.6 3.9-2.9 0-2.4-1.9-3-3.9-3m-.3-5.8c6.3 0 11.2 2 11.2 8.8 0 6.7-4.8 8.7-11.2 8.8H38v8h-6.8V14.5h10.2zM55.8 40.1V14.5h6.8v9.7h3.2l5.8-9.7h7.5l-8 12.4 8.4 13.2H72l-6.2-9.9h-3.2v9.9zM93.2 20.1c-4.4 0-6.8 3-6.8 7.1s2.3 7.1 6.8 7.1c4.4 0 6.8-3 6.8-7.1s-2.4-7.1-6.8-7.1m0-6.2c9.1 0 13.7 6.2 13.7 13.3s-4.6 13.3-13.7 13.3-13.7-6.2-13.7-13.3S84 13.9 93.2 13.9M139 14.5v25.6h-6.8V26.5l-5.5 8.4h-3.8l-5.5-8.5v13.7h-6.8V14.5h6.4l7.8 12 7.8-12z"/><path fill="#ED1A40" d="M152 5.9c0 3.3-2.6 5.9-5.9 5.9-3.3 0-5.9-2.6-5.9-5.9 0-3.3 2.6-5.9 5.9-5.9 3.3 0 5.9 2.6 5.9 5.9"/></svg>